<?xml version="1.0" encoding="UTF-8"?>
<svg xmlns="http://www.w3.org/2000/svg" onmouseup="{ if(window.parent.document.onmouseup) window.parent.document.onmouseup(arguments[0]);}" width="36" viewBox="0 0 36 36" id="S_AdDisplay_18_N_2x" height="36" data-name="S_AdDisplay_18_N@2x"><defs><style>
      .fill {
        fill: #6e6e6e;
      }

      
    </style></defs><rect data-cppathid="10000" y="8" x="22" width="8" height="14" class="fill"/><path data-cppathid="10001" d="M35,2H1A1,1,0,0,0,0,3V27a1,1,0,0,0,1,1H14v5a1,1,0,0,1-1,1H11a.979.979,0,0,0-1,1v1H26V35a1,1,0,0,0-1-1H23a1,1,0,0,1-1-1V28H35a1,1,0,0,0,1-1V3A1,1,0,0,0,35,2ZM32,24H4V6H32Z" class="fill"/></svg>